<svg xmlns="http://www.w3.org/2000/svg" xmlns:xlink="http://www.w3.org/1999/xlink" width="1080" zoomAndPan="magnify" viewBox="0 0 810 809.999993" height="1080" preserveAspectRatio="xMidYMid meet" version="1.0"><defs><clipPath id="9c891ce0d9"><path d="M 405 0 C 181.324219 0 0 181.324219 0 405 C 0 628.675781 181.324219 810 405 810 C 628.675781 810 810 628.675781 810 405 C 810 181.324219 628.675781 0 405 0 Z M 405 0 " clip-rule="nonzero"/></clipPath><clipPath id="38780ac094"><path d="M 175.574219 173.972656 L 616 173.972656 L 616 554 L 175.574219 554 Z M 175.574219 173.972656 " clip-rule="nonzero"/></clipPath></defs><rect x="-81" width="972" fill="#ffffff" y="-80.999999" height="971.999992" fill-opacity="1"/><rect x="-81" width="972" fill="#ffffff" y="-80.999999" height="971.999992" fill-opacity="1"/><g clip-path="url(#9c891ce0d9)"><rect x="-81" width="972" fill="#facc15" y="-80.999999" height="971.999992" fill-opacity="1"/></g><g clip-path="url(#38780ac094)"><path fill="#ffffff" d="M 392.8125 322.941406 C 380.199219 319.808594 362.773438 313.6875 338.679688 302.722656 C 251.578125 263.089844 245.464844 264.246094 245.464844 264.246094 C 245.464844 264.246094 227.847656 281.144531 241.207031 303.953125 C 254.5625 326.761719 287.960938 350.304688 287.960938 350.304688 C 287.960938 350.304688 249.613281 354.835938 234.328125 344.15625 C 219.039062 333.472656 226.789062 380.863281 263.019531 400.253906 C 299.253906 419.644531 318.257812 419.671875 318.257812 419.671875 L 258.035156 426.527344 C 258.035156 426.527344 246.960938 434.953125 285.484375 452.101562 C 324.007812 469.25 363.316406 461.820312 363.316406 461.820312 C 363.316406 461.820312 386.066406 486.472656 293.6875 500.308594 C 201.308594 514.144531 175.578125 507.246094 175.578125 507.246094 C 388.203125 636.019531 634.417969 477.253906 537.277344 291.207031 L 537.273438 291.207031 C 540.222656 280.054688 540.890625 268.125 538.832031 256.046875 L 615.980469 238.113281 L 535.179688 242.03125 C 534.527344 240.195312 533.8125 238.390625 533.039062 236.621094 L 577.171875 173.972656 C 577.171875 173.972656 540.777344 202.371094 521.199219 217.296875 C 502.542969 194.570312 472.386719 182.464844 441.457031 188.308594 C 396.351562 196.832031 366.695312 240.308594 375.21875 285.414062 C 377.921875 299.71875 384.144531 312.46875 392.8125 322.941406 Z M 477.984375 213.144531 C 495.894531 213.144531 510.414062 227.664062 510.414062 245.574219 C 510.414062 263.484375 495.894531 278.003906 477.984375 278.003906 C 460.074219 278.003906 445.554688 263.484375 445.554688 245.574219 C 445.554688 227.664062 460.074219 213.144531 477.984375 213.144531 Z M 471.242188 225.988281 C 478.511719 225.988281 484.40625 231.882812 484.40625 239.152344 C 484.40625 246.425781 478.511719 252.320312 471.242188 252.320312 C 463.972656 252.320312 458.078125 246.425781 458.078125 239.152344 C 458.078125 231.882812 463.972656 225.988281 471.242188 225.988281 Z M 471.242188 225.988281 " fill-opacity="1" fill-rule="evenodd"/></g></svg>