<svg xmlns="http://www.w3.org/2000/svg" xmlns:xlink="http://www.w3.org/1999/xlink" width="1080" zoomAndPan="magnify" viewBox="0 0 810 809.999993" height="1080" preserveAspectRatio="xMidYMid meet" version="1.0"><defs><clipPath id="fb1d8104cb"><path d="M 405 0 C 181.324219 0 0 181.324219 0 405 C 0 628.675781 181.324219 810 405 810 C 628.675781 810 810 628.675781 810 405 C 810 181.324219 628.675781 0 405 0 Z M 405 0 " clip-rule="nonzero"/></clipPath><clipPath id="8d0850f052"><path d="M 412 167.425781 L 646 167.425781 L 646 401 L 412 401 Z M 412 167.425781 " clip-rule="nonzero"/></clipPath><clipPath id="ee1f3cf13a"><path d="M 165 186 L 621 186 L 621 642.925781 L 165 642.925781 Z M 165 186 " clip-rule="nonzero"/></clipPath></defs><rect x="-81" width="972" fill="#ffffff" y="-80.999999" height="971.999992" fill-opacity="1"/><rect x="-81" width="972" fill="#ffffff" y="-80.999999" height="971.999992" fill-opacity="1"/><g clip-path="url(#fb1d8104cb)"><rect x="-81" width="972" fill="#facc15" y="-80.999999" height="971.999992" fill-opacity="1"/></g><path fill="#fbfcfc" d="M 412.4375 247.960938 C 412.4375 247.480469 412.484375 247.007812 412.578125 246.539062 C 412.671875 246.070312 412.808594 245.613281 412.992188 245.171875 C 413.175781 244.730469 413.398438 244.308594 413.664062 243.910156 C 413.929688 243.511719 414.234375 243.144531 414.570312 242.808594 C 414.910156 242.46875 415.277344 242.167969 415.675781 241.902344 C 416.074219 241.636719 416.492188 241.410156 416.933594 241.226562 C 417.375 241.042969 417.832031 240.90625 418.300781 240.8125 C 418.769531 240.71875 419.246094 240.671875 419.722656 240.671875 C 422.21875 240.675781 424.710938 240.738281 427.203125 240.863281 C 429.691406 240.988281 432.179688 241.175781 434.660156 241.421875 C 437.144531 241.667969 439.617188 241.976562 442.085938 242.34375 C 444.554688 242.710938 447.007812 243.140625 449.457031 243.628906 C 451.902344 244.117188 454.335938 244.664062 456.753906 245.273438 C 459.171875 245.878906 461.578125 246.546875 463.960938 247.273438 C 466.347656 248 468.71875 248.78125 471.066406 249.625 C 473.414062 250.464844 475.738281 251.363281 478.042969 252.320312 C 480.347656 253.277344 482.625 254.289062 484.882812 255.355469 C 487.136719 256.421875 489.363281 257.542969 491.5625 258.722656 C 493.761719 259.898438 495.929688 261.128906 498.070312 262.410156 C 500.210938 263.695312 502.316406 265.027344 504.390625 266.414062 C 506.464844 267.800781 508.5 269.238281 510.503906 270.722656 C 512.507812 272.210938 514.472656 273.746094 516.402344 275.328125 C 518.332031 276.910156 520.21875 278.539062 522.066406 280.214844 C 523.914062 281.890625 525.71875 283.609375 527.484375 285.375 C 529.25 287.136719 530.96875 288.945312 532.644531 290.792969 C 534.320312 292.640625 535.949219 294.527344 537.53125 296.457031 C 539.113281 298.382812 540.648438 300.351562 542.132812 302.351562 C 543.621094 304.355469 545.054688 306.394531 546.441406 308.46875 C 547.828125 310.542969 549.164062 312.648438 550.445312 314.789062 C 551.730469 316.925781 552.960938 319.097656 554.136719 321.296875 C 555.3125 323.496094 556.4375 325.722656 557.503906 327.976562 C 558.570312 330.230469 559.582031 332.511719 560.539062 334.816406 C 561.492188 337.117188 562.394531 339.445312 563.234375 341.792969 C 564.074219 344.140625 564.859375 346.507812 565.585938 348.894531 C 566.3125 351.28125 566.976562 353.683594 567.585938 356.105469 C 568.191406 358.523438 568.742188 360.957031 569.230469 363.402344 C 569.71875 365.847656 570.148438 368.304688 570.515625 370.773438 C 570.882812 373.238281 571.191406 375.714844 571.4375 378.195312 C 571.683594 380.679688 571.871094 383.164062 571.992188 385.65625 C 572.117188 388.148438 572.183594 390.640625 572.183594 393.136719 C 572.183594 393.613281 572.136719 394.085938 572.046875 394.558594 C 571.953125 395.027344 571.8125 395.480469 571.628906 395.921875 C 571.445312 396.367188 571.222656 396.785156 570.957031 397.183594 C 570.691406 397.582031 570.390625 397.949219 570.050781 398.289062 C 569.710938 398.625 569.34375 398.925781 568.945312 399.191406 C 568.550781 399.460938 568.128906 399.683594 567.6875 399.867188 C 567.246094 400.050781 566.789062 400.1875 566.320312 400.28125 C 565.851562 400.375 565.378906 400.421875 564.898438 400.421875 C 564.421875 400.421875 563.945312 400.375 563.476562 400.28125 C 563.007812 400.1875 562.554688 400.050781 562.109375 399.867188 C 561.667969 399.683594 561.25 399.460938 560.851562 399.195312 C 560.453125 398.925781 560.085938 398.625 559.746094 398.289062 C 559.410156 397.949219 559.105469 397.582031 558.839844 397.183594 C 558.574219 396.785156 558.351562 396.367188 558.167969 395.921875 C 557.984375 395.480469 557.847656 395.027344 557.753906 394.558594 C 557.660156 394.085938 557.613281 393.613281 557.613281 393.136719 C 557.609375 390.878906 557.554688 388.625 557.441406 386.371094 C 557.328125 384.117188 557.160156 381.871094 556.933594 379.625 C 556.710938 377.378906 556.433594 375.140625 556.101562 372.910156 C 555.765625 370.679688 555.378906 368.457031 554.9375 366.246094 C 554.496094 364.03125 554 361.832031 553.449219 359.644531 C 552.902344 357.457031 552.296875 355.285156 551.640625 353.125 C 550.984375 350.964844 550.277344 348.824219 549.515625 346.703125 C 548.753906 344.578125 547.941406 342.476562 547.074219 340.390625 C 546.210938 338.308594 545.296875 336.246094 544.332031 334.207031 C 543.363281 332.167969 542.351562 330.152344 541.285156 328.164062 C 540.222656 326.175781 539.109375 324.214844 537.949219 322.277344 C 536.789062 320.34375 535.582031 318.441406 534.328125 316.5625 C 533.074219 314.6875 531.773438 312.84375 530.429688 311.035156 C 529.085938 309.222656 527.699219 307.445312 526.265625 305.699219 C 524.835938 303.957031 523.363281 302.25 521.847656 300.578125 C 520.332031 298.90625 518.777344 297.273438 517.179688 295.675781 C 515.585938 294.082031 513.953125 292.527344 512.28125 291.011719 C 510.609375 289.496094 508.902344 288.023438 507.15625 286.59375 C 505.414062 285.160156 503.636719 283.773438 501.824219 282.429688 C 500.011719 281.085938 498.167969 279.785156 496.292969 278.53125 C 494.417969 277.277344 492.511719 276.070312 490.578125 274.910156 C 488.644531 273.75 486.683594 272.636719 484.691406 271.574219 C 482.703125 270.507812 480.691406 269.492188 478.652344 268.527344 C 476.613281 267.5625 474.550781 266.648438 472.46875 265.78125 C 470.382812 264.917969 468.28125 264.105469 466.15625 263.34375 C 464.03125 262.582031 461.890625 261.875 459.734375 261.21875 C 457.574219 260.5625 455.402344 259.957031 453.214844 259.40625 C 451.027344 258.859375 448.824219 258.363281 446.613281 257.921875 C 444.402344 257.476562 442.179688 257.089844 439.949219 256.757812 C 437.714844 256.425781 435.476562 256.144531 433.234375 255.921875 C 430.988281 255.699219 428.738281 255.53125 426.488281 255.417969 C 424.234375 255.304688 421.980469 255.246094 419.722656 255.246094 C 419.246094 255.246094 418.769531 255.199219 418.300781 255.105469 C 417.832031 255.011719 417.375 254.875 416.933594 254.691406 C 416.492188 254.507812 416.074219 254.28125 415.675781 254.015625 C 415.277344 253.75 414.910156 253.449219 414.570312 253.109375 C 414.234375 252.773438 413.929688 252.40625 413.664062 252.007812 C 413.398438 251.609375 413.175781 251.1875 412.992188 250.746094 C 412.808594 250.304688 412.671875 249.851562 412.578125 249.378906 C 412.484375 248.910156 412.4375 248.4375 412.4375 247.960938 Z M 412.4375 247.960938 " fill-opacity="1" fill-rule="nonzero"/><g clip-path="url(#8d0850f052)"><path fill="#fbfcfc" d="M 645.664062 393.136719 C 645.664062 393.613281 645.617188 394.085938 645.523438 394.558594 C 645.429688 395.027344 645.292969 395.480469 645.109375 395.921875 C 644.925781 396.367188 644.703125 396.785156 644.4375 397.183594 C 644.171875 397.582031 643.867188 397.949219 643.53125 398.289062 C 643.191406 398.625 642.824219 398.925781 642.425781 399.191406 C 642.027344 399.460938 641.609375 399.683594 641.167969 399.867188 C 640.726562 400.050781 640.269531 400.1875 639.800781 400.28125 C 639.332031 400.375 638.855469 400.421875 638.378906 400.421875 C 637.898438 400.421875 637.425781 400.375 636.957031 400.28125 C 636.488281 400.1875 636.03125 400.050781 635.589844 399.867188 C 635.148438 399.683594 634.726562 399.460938 634.332031 399.195312 C 633.933594 398.925781 633.566406 398.625 633.226562 398.289062 C 632.886719 397.949219 632.585938 397.582031 632.320312 397.183594 C 632.054688 396.785156 631.832031 396.367188 631.648438 395.921875 C 631.464844 395.480469 631.324219 395.027344 631.234375 394.558594 C 631.140625 394.085938 631.09375 393.613281 631.09375 393.136719 C 631.089844 389.675781 631.003906 386.21875 630.832031 382.765625 C 630.660156 379.308594 630.402344 375.863281 630.0625 372.417969 C 629.71875 368.976562 629.292969 365.546875 628.785156 362.125 C 628.277344 358.703125 627.683594 355.296875 627.007812 351.902344 C 626.328125 348.511719 625.570312 345.136719 624.726562 341.785156 C 623.886719 338.429688 622.960938 335.097656 621.957031 331.785156 C 620.953125 328.476562 619.867188 325.195312 618.699219 321.9375 C 617.535156 318.679688 616.289062 315.457031 614.964844 312.261719 C 613.636719 309.066406 612.238281 305.902344 610.757812 302.777344 C 609.277344 299.652344 607.722656 296.5625 606.089844 293.511719 C 604.460938 290.460938 602.753906 287.453125 600.976562 284.484375 C 599.199219 281.519531 597.347656 278.597656 595.425781 275.722656 C 593.503906 272.847656 591.511719 270.019531 589.453125 267.242188 C 587.390625 264.460938 585.265625 261.734375 583.070312 259.0625 C 580.875 256.386719 578.617188 253.769531 576.296875 251.207031 C 573.972656 248.644531 571.589844 246.136719 569.144531 243.691406 C 566.699219 241.246094 564.195312 238.859375 561.632812 236.539062 C 559.070312 234.214844 556.453125 231.953125 553.777344 229.757812 C 551.105469 227.5625 548.378906 225.4375 545.601562 223.375 C 542.824219 221.3125 539.996094 219.320312 537.121094 217.398438 C 534.246094 215.476562 531.328125 213.625 528.359375 211.84375 C 525.394531 210.0625 522.386719 208.359375 519.335938 206.726562 C 516.289062 205.09375 513.199219 203.539062 510.074219 202.058594 C 506.949219 200.574219 503.789062 199.171875 500.59375 197.847656 C 497.398438 196.519531 494.171875 195.273438 490.917969 194.105469 C 487.660156 192.9375 484.378906 191.851562 481.066406 190.847656 C 477.757812 189.839844 474.425781 188.914062 471.074219 188.070312 C 467.71875 187.226562 464.34375 186.46875 460.953125 185.789062 C 457.558594 185.113281 454.152344 184.519531 450.734375 184.007812 C 447.3125 183.496094 443.878906 183.070312 440.4375 182.726562 C 436.996094 182.386719 433.546875 182.125 430.09375 181.953125 C 426.636719 181.78125 423.183594 181.691406 419.722656 181.6875 C 419.246094 181.6875 418.769531 181.640625 418.300781 181.546875 C 417.832031 181.453125 417.375 181.316406 416.933594 181.132812 C 416.492188 180.949219 416.074219 180.726562 415.675781 180.460938 C 415.277344 180.195312 414.910156 179.890625 414.570312 179.554688 C 414.234375 179.214844 413.929688 178.847656 413.664062 178.449219 C 413.398438 178.050781 413.175781 177.632812 412.992188 177.191406 C 412.808594 176.75 412.671875 176.292969 412.578125 175.824219 C 412.484375 175.355469 412.4375 174.878906 412.4375 174.402344 C 412.4375 173.921875 412.484375 173.449219 412.578125 172.980469 C 412.671875 172.511719 412.808594 172.054688 412.992188 171.613281 C 413.175781 171.171875 413.398438 170.75 413.664062 170.355469 C 413.929688 169.957031 414.234375 169.589844 414.570312 169.25 C 414.910156 168.910156 415.277344 168.609375 415.675781 168.34375 C 416.074219 168.078125 416.492188 167.855469 416.933594 167.671875 C 417.375 167.488281 417.832031 167.347656 418.300781 167.257812 C 418.769531 167.164062 419.246094 167.117188 419.722656 167.117188 C 423.417969 167.121094 427.113281 167.214844 430.808594 167.402344 C 434.5 167.589844 438.183594 167.867188 441.863281 168.234375 C 445.542969 168.597656 449.210938 169.054688 452.867188 169.601562 C 456.523438 170.148438 460.164062 170.785156 463.789062 171.511719 C 467.414062 172.234375 471.019531 173.050781 474.605469 173.949219 C 478.191406 174.851562 481.753906 175.84375 485.289062 176.917969 C 488.828125 177.996094 492.335938 179.15625 495.816406 180.40625 C 499.292969 181.65625 502.742188 182.988281 506.15625 184.40625 C 509.570312 185.824219 512.949219 187.324219 516.289062 188.90625 C 519.632812 190.488281 522.929688 192.152344 526.191406 193.898438 C 529.449219 195.640625 532.664062 197.464844 535.835938 199.367188 C 539.003906 201.269531 542.128906 203.25 545.199219 205.304688 C 548.273438 207.359375 551.292969 209.492188 554.261719 211.695312 C 557.230469 213.898438 560.144531 216.171875 563 218.519531 C 565.859375 220.863281 568.65625 223.28125 571.394531 225.761719 C 574.132812 228.246094 576.8125 230.796875 579.425781 233.410156 C 582.039062 236.027344 584.585938 238.703125 587.070312 241.441406 C 589.550781 244.183594 591.964844 246.980469 594.3125 249.839844 C 596.65625 252.695312 598.929688 255.609375 601.132812 258.578125 C 603.335938 261.550781 605.464844 264.570312 607.519531 267.644531 C 609.574219 270.71875 611.550781 273.839844 613.453125 277.011719 C 615.351562 280.183594 617.175781 283.398438 618.917969 286.65625 C 620.664062 289.917969 622.324219 293.21875 623.90625 296.558594 C 625.488281 299.902344 626.988281 303.28125 628.40625 306.695312 C 629.820312 310.109375 631.152344 313.558594 632.402344 317.039062 C 633.648438 320.519531 634.808594 324.027344 635.882812 327.566406 C 636.960938 331.101562 637.949219 334.664062 638.847656 338.25 C 639.75 341.835938 640.5625 345.441406 641.285156 349.066406 C 642.007812 352.691406 642.644531 356.332031 643.1875 359.988281 C 643.734375 363.648438 644.191406 367.316406 644.554688 370.992188 C 644.921875 374.671875 645.195312 378.359375 645.382812 382.050781 C 645.566406 385.742188 645.660156 389.4375 645.664062 393.136719 Z M 645.664062 393.136719 " fill-opacity="1" fill-rule="nonzero"/></g><path fill="#fbfcfc" d="M 412.4375 321.4375 C 412.4375 320.960938 412.484375 320.484375 412.578125 320.015625 C 412.671875 319.546875 412.808594 319.09375 412.992188 318.648438 C 413.175781 318.207031 413.398438 317.789062 413.664062 317.390625 C 413.929688 316.992188 414.234375 316.625 414.570312 316.285156 C 414.910156 315.949219 415.277344 315.644531 415.675781 315.378906 C 416.074219 315.113281 416.492188 314.890625 416.933594 314.707031 C 417.375 314.523438 417.832031 314.386719 418.300781 314.292969 C 418.769531 314.199219 419.246094 314.152344 419.722656 314.152344 C 421.011719 314.15625 422.300781 314.195312 423.589844 314.261719 C 424.875 314.332031 426.160156 314.429688 427.445312 314.5625 C 428.726562 314.691406 430.003906 314.855469 431.28125 315.046875 C 432.554688 315.242188 433.824219 315.46875 435.085938 315.722656 C 436.351562 315.980469 437.609375 316.265625 438.859375 316.582031 C 440.105469 316.898438 441.347656 317.25 442.582031 317.625 C 443.8125 318.003906 445.035156 318.414062 446.25 318.851562 C 447.460938 319.289062 448.664062 319.757812 449.851562 320.253906 C 451.042969 320.75 452.21875 321.277344 453.382812 321.832031 C 454.546875 322.386719 455.695312 322.96875 456.832031 323.578125 C 457.96875 324.191406 459.089844 324.828125 460.191406 325.492188 C 461.296875 326.160156 462.382812 326.851562 463.453125 327.570312 C 464.523438 328.289062 465.578125 329.035156 466.609375 329.804688 C 467.644531 330.574219 468.660156 331.371094 469.652344 332.191406 C 470.648438 333.011719 471.621094 333.855469 472.574219 334.722656 C 473.53125 335.589844 474.460938 336.480469 475.371094 337.394531 C 476.28125 338.308594 477.167969 339.242188 478.03125 340.199219 C 478.898438 341.15625 479.738281 342.136719 480.554688 343.132812 C 481.371094 344.132812 482.160156 345.148438 482.925781 346.1875 C 483.695312 347.222656 484.433594 348.277344 485.148438 349.351562 C 485.863281 350.425781 486.550781 351.515625 487.214844 352.621094 C 487.875 353.726562 488.507812 354.851562 489.113281 355.988281 C 489.722656 357.125 490.300781 358.277344 490.847656 359.445312 C 491.398438 360.609375 491.921875 361.789062 492.414062 362.980469 C 492.90625 364.171875 493.367188 365.375 493.800781 366.589844 C 494.234375 367.804688 494.636719 369.027344 495.011719 370.261719 C 495.382812 371.496094 495.726562 372.738281 496.039062 373.992188 C 496.351562 375.242188 496.632812 376.5 496.886719 377.765625 C 497.136719 379.027344 497.355469 380.300781 497.542969 381.574219 C 497.734375 382.851562 497.890625 384.128906 498.015625 385.414062 C 498.144531 386.695312 498.238281 387.980469 498.300781 389.269531 C 498.363281 390.558594 498.394531 391.847656 498.394531 393.136719 C 498.402344 393.613281 498.359375 394.089844 498.269531 394.5625 C 498.179688 395.035156 498.042969 395.492188 497.863281 395.9375 C 497.679688 396.378906 497.457031 396.800781 497.191406 397.203125 C 496.925781 397.601562 496.625 397.972656 496.285156 398.308594 C 495.945312 398.648438 495.574219 398.953125 495.175781 399.21875 C 494.777344 399.484375 494.355469 399.707031 493.910156 399.886719 C 493.464844 400.070312 493.007812 400.203125 492.535156 400.292969 C 492.066406 400.382812 491.589844 400.425781 491.109375 400.421875 C 490.640625 400.394531 490.175781 400.324219 489.71875 400.210938 C 489.261719 400.101562 488.816406 399.949219 488.386719 399.753906 C 487.957031 399.5625 487.550781 399.332031 487.160156 399.066406 C 486.773438 398.796875 486.414062 398.496094 486.082031 398.164062 C 485.746094 397.832031 485.449219 397.472656 485.179688 397.082031 C 484.914062 396.695312 484.683594 396.285156 484.488281 395.855469 C 484.296875 395.425781 484.144531 394.984375 484.03125 394.527344 C 483.921875 394.070312 483.851562 393.605469 483.824219 393.136719 C 483.824219 392.082031 483.796875 391.03125 483.746094 389.976562 C 483.695312 388.925781 483.617188 387.875 483.515625 386.828125 C 483.410156 385.777344 483.28125 384.734375 483.128906 383.691406 C 482.972656 382.648438 482.792969 381.613281 482.585938 380.578125 C 482.382812 379.546875 482.152344 378.519531 481.894531 377.496094 C 481.640625 376.476562 481.359375 375.460938 481.054688 374.453125 C 480.75 373.445312 480.417969 372.445312 480.0625 371.453125 C 479.710938 370.460938 479.332031 369.476562 478.929688 368.503906 C 478.523438 367.53125 478.097656 366.566406 477.648438 365.617188 C 477.199219 364.664062 476.726562 363.722656 476.230469 362.792969 C 475.734375 361.863281 475.214844 360.949219 474.671875 360.042969 C 474.132812 359.140625 473.570312 358.25 472.984375 357.375 C 472.398438 356.5 471.792969 355.636719 471.167969 354.792969 C 470.539062 353.945312 469.890625 353.113281 469.222656 352.300781 C 468.558594 351.484375 467.871094 350.6875 467.164062 349.90625 C 466.457031 349.125 465.730469 348.363281 464.984375 347.617188 C 464.242188 346.871094 463.480469 346.144531 462.699219 345.4375 C 461.917969 344.730469 461.121094 344.042969 460.308594 343.371094 C 459.496094 342.703125 458.664062 342.054688 457.820312 341.425781 C 456.972656 340.800781 456.113281 340.191406 455.238281 339.605469 C 454.363281 339.019531 453.472656 338.457031 452.570312 337.914062 C 451.667969 337.371094 450.75 336.851562 449.824219 336.355469 C 448.894531 335.859375 447.953125 335.382812 447.003906 334.933594 C 446.050781 334.480469 445.089844 334.054688 444.117188 333.648438 C 443.144531 333.246094 442.160156 332.867188 441.167969 332.511719 C 440.175781 332.152344 439.179688 331.824219 438.171875 331.515625 C 437.164062 331.210938 436.148438 330.925781 435.125 330.671875 C 434.105469 330.414062 433.078125 330.183594 432.046875 329.976562 C 431.011719 329.769531 429.976562 329.585938 428.933594 329.433594 C 427.890625 329.277344 426.847656 329.144531 425.796875 329.042969 C 424.75 328.9375 423.699219 328.859375 422.648438 328.804688 C 421.597656 328.753906 420.542969 328.726562 419.488281 328.722656 C 419.023438 328.710938 418.558594 328.648438 418.101562 328.546875 C 417.644531 328.441406 417.203125 328.292969 416.773438 328.105469 C 416.34375 327.914062 415.9375 327.6875 415.554688 327.417969 C 415.167969 327.148438 414.8125 326.847656 414.488281 326.511719 C 414.160156 326.171875 413.871094 325.808594 413.617188 325.414062 C 413.359375 325.023438 413.144531 324.609375 412.96875 324.175781 C 412.792969 323.738281 412.660156 323.292969 412.570312 322.832031 C 412.480469 322.371094 412.4375 321.90625 412.4375 321.4375 Z M 412.4375 321.4375 " fill-opacity="1" fill-rule="nonzero"/><g clip-path="url(#ee1f3cf13a)"><path fill="#fbfcfc" d="M 620.707031 548.777344 L 620.707031 562.882812 C 620.695312 565.613281 620.417969 568.316406 619.878906 570.988281 C 619.335938 573.664062 618.539062 576.261719 617.488281 578.78125 C 616.441406 581.300781 615.15625 583.695312 613.636719 585.964844 C 612.117188 588.230469 610.390625 590.328125 608.460938 592.257812 L 570.324219 630.082031 C 568.421875 631.976562 566.351562 633.667969 564.121094 635.15625 C 561.886719 636.644531 559.53125 637.90625 557.050781 638.933594 C 554.574219 639.964844 552.015625 640.746094 549.386719 641.277344 C 546.753906 641.8125 544.097656 642.082031 541.414062 642.097656 L 539.707031 642.097656 C 533.652344 641.835938 527.605469 641.4375 521.566406 640.894531 C 515.53125 640.351562 509.507812 639.671875 503.503906 638.851562 C 497.496094 638.03125 491.511719 637.070312 485.550781 635.972656 C 479.589844 634.875 473.65625 633.636719 467.753906 632.265625 C 461.847656 630.890625 455.980469 629.378906 450.144531 627.734375 C 444.3125 626.085938 438.519531 624.304688 432.765625 622.390625 C 427.015625 620.476562 421.3125 618.429688 415.65625 616.25 C 410 614.070312 404.398438 611.757812 398.847656 609.320312 C 393.296875 606.878906 387.808594 604.3125 382.378906 601.617188 C 376.949219 598.921875 371.585938 596.101562 366.285156 593.160156 C 360.984375 590.214844 355.757812 587.148438 350.601562 583.964844 C 345.445312 580.777344 340.363281 577.472656 335.359375 574.050781 C 330.359375 570.628906 325.4375 567.09375 320.597656 563.441406 C 315.757812 559.792969 311.003906 556.03125 306.339844 552.160156 C 301.675781 548.289062 297.101562 544.3125 292.625 540.226562 C 288.144531 536.144531 283.761719 531.957031 279.472656 527.671875 C 275.1875 523.386719 271.003906 519 266.921875 514.519531 C 262.839844 510.039062 258.863281 505.464844 254.992188 500.800781 C 251.121094 496.132812 247.363281 491.382812 243.710938 486.542969 C 240.0625 481.703125 236.527344 476.78125 233.105469 471.777344 C 229.6875 466.769531 226.382812 461.691406 223.195312 456.53125 C 220.011719 451.375 216.949219 446.148438 214.003906 440.847656 C 211.0625 435.546875 208.246094 430.183594 205.550781 424.75 C 202.855469 419.320312 200.289062 413.832031 197.851562 408.28125 C 195.414062 402.730469 193.105469 397.128906 190.925781 391.472656 C 188.746094 385.816406 186.699219 380.109375 184.785156 374.359375 C 182.871094 368.609375 181.09375 362.8125 179.449219 356.980469 C 177.804688 351.144531 176.292969 345.277344 174.921875 339.371094 C 173.546875 333.46875 172.3125 327.535156 171.214844 321.574219 C 170.117188 315.609375 169.160156 309.628906 168.339844 303.621094 C 167.519531 297.613281 166.839844 291.59375 166.300781 285.554688 C 165.761719 279.515625 165.363281 273.46875 165.101562 267.414062 C 164.953125 264.554688 165.101562 261.714844 165.550781 258.886719 C 166.003906 256.0625 166.742188 253.3125 167.769531 250.640625 C 168.796875 247.96875 170.09375 245.4375 171.65625 243.039062 C 173.214844 240.640625 175.011719 238.429688 177.039062 236.410156 L 214.863281 198.664062 C 216.792969 196.734375 218.894531 195.007812 221.160156 193.492188 C 223.429688 191.972656 225.824219 190.6875 228.34375 189.636719 C 230.863281 188.589844 233.457031 187.792969 236.132812 187.25 C 238.808594 186.707031 241.511719 186.429688 244.238281 186.414062 L 258.113281 186.414062 C 260.203125 186.417969 262.28125 186.578125 264.347656 186.894531 C 266.414062 187.210938 268.441406 187.683594 270.4375 188.304688 C 272.433594 188.929688 274.367188 189.699219 276.246094 190.613281 C 278.125 191.527344 279.925781 192.578125 281.644531 193.765625 C 283.367188 194.953125 284.988281 196.261719 286.507812 197.695312 C 288.03125 199.125 289.4375 200.664062 290.730469 202.304688 C 292.019531 203.949219 293.179688 205.679688 294.207031 207.5 C 295.238281 209.320312 296.125 211.203125 296.871094 213.15625 L 330.355469 302.136719 C 331.023438 303.945312 331.5625 305.785156 331.976562 307.667969 C 332.390625 309.546875 332.671875 311.449219 332.820312 313.367188 C 332.96875 315.289062 332.984375 317.207031 332.867188 319.128906 C 332.75 321.050781 332.5 322.957031 332.121094 324.84375 C 331.738281 326.730469 331.226562 328.582031 330.589844 330.398438 C 329.949219 332.214844 329.191406 333.980469 328.308594 335.691406 C 327.421875 337.402344 326.425781 339.042969 325.316406 340.613281 C 324.203125 342.1875 322.988281 343.675781 321.671875 345.078125 L 307.796875 359.726562 C 306.75 360.832031 305.804688 362.015625 304.960938 363.28125 C 304.117188 364.546875 303.386719 365.875 302.769531 367.265625 C 302.152344 368.65625 301.65625 370.089844 301.285156 371.566406 C 300.914062 373.042969 300.667969 374.539062 300.554688 376.054688 C 300.4375 377.570312 300.453125 379.085938 300.597656 380.601562 C 300.742188 382.117188 301.011719 383.609375 301.410156 385.078125 C 301.808594 386.542969 302.332031 387.96875 302.972656 389.347656 C 303.617188 390.726562 304.371094 392.039062 305.242188 393.289062 C 319.898438 414.59375 336.34375 434.414062 354.578125 452.75 C 372.808594 471.085938 392.535156 487.644531 413.753906 502.425781 C 415.007812 503.238281 416.316406 503.945312 417.6875 504.539062 C 419.054688 505.136719 420.464844 505.613281 421.914062 505.972656 C 423.363281 506.332031 424.835938 506.570312 426.324219 506.683594 C 427.8125 506.796875 429.300781 506.785156 430.789062 506.648438 C 432.277344 506.511719 433.742188 506.253906 435.1875 505.871094 C 436.628906 505.488281 438.03125 504.992188 439.394531 504.375 C 440.753906 503.757812 442.054688 503.03125 443.292969 502.195312 C 444.53125 501.363281 445.691406 500.429688 446.773438 499.402344 L 461.65625 485.292969 C 463.058594 483.976562 464.546875 482.761719 466.121094 481.652344 C 467.691406 480.539062 469.335938 479.542969 471.046875 478.660156 C 472.757812 477.777344 474.519531 477.015625 476.335938 476.378906 C 478.152344 475.738281 480.003906 475.230469 481.890625 474.847656 C 483.777344 474.464844 485.683594 474.214844 487.605469 474.097656 C 489.527344 473.980469 491.449219 474 493.367188 474.148438 C 495.285156 474.296875 497.1875 474.578125 499.066406 474.992188 C 500.949219 475.402344 502.789062 475.945312 504.597656 476.613281 L 593.578125 510.097656 C 595.546875 510.824219 597.445312 511.699219 599.28125 512.714844 C 601.117188 513.730469 602.867188 514.878906 604.527344 516.160156 C 606.1875 517.441406 607.742188 518.839844 609.195312 520.355469 C 610.644531 521.871094 611.96875 523.488281 613.175781 525.207031 C 614.378906 526.921875 615.449219 528.722656 616.378906 530.601562 C 617.3125 532.480469 618.097656 534.417969 618.734375 536.417969 C 619.375 538.414062 619.859375 540.449219 620.1875 542.523438 C 620.519531 544.59375 620.691406 546.679688 620.707031 548.777344 Z M 620.707031 548.777344 " fill-opacity="1" fill-rule="nonzero"/></g></svg>