<svg xmlns="http://www.w3.org/2000/svg" xmlns:xlink="http://www.w3.org/1999/xlink" width="1080" zoomAndPan="magnify" viewBox="0 0 810 809.999993" height="1080" preserveAspectRatio="xMidYMid meet" version="1.0"><defs><clipPath id="5cb289f94d"><path d="M 405 0 C 181.324219 0 0 181.324219 0 405 C 0 628.675781 181.324219 810 405 810 C 628.675781 810 810 628.675781 810 405 C 810 181.324219 628.675781 0 405 0 Z M 405 0 " clip-rule="nonzero"/></clipPath><clipPath id="adc1d926fe"><path d="M 205.625 114.472656 L 604.625 114.472656 L 604.625 686 L 205.625 686 Z M 205.625 114.472656 " clip-rule="nonzero"/></clipPath></defs><rect x="-81" width="972" fill="#ffffff" y="-80.999999" height="971.999992" fill-opacity="1"/><rect x="-81" width="972" fill="#ffffff" y="-80.999999" height="971.999992" fill-opacity="1"/><g clip-path="url(#5cb289f94d)"><rect x="-81" width="972" fill="#facc15" y="-80.999999" height="971.999992" fill-opacity="1"/></g><g clip-path="url(#adc1d926fe)"><path fill="#ffffff" d="M 405 114.664062 C 515.113281 114.664062 604.375 203.929688 604.375 314.042969 C 604.375 352.355469 593.5625 388.132812 574.828125 418.515625 C 552.359375 455.734375 529.890625 492.957031 507.421875 530.183594 C 480.054688 574.664062 457.914062 610.660156 430.550781 655.144531 C 406.425781 694.367188 404.796875 695.328125 380.542969 655.90625 C 353.316406 611.644531 330.429688 574.441406 303.203125 530.183594 C 280.785156 493.378906 258.371094 456.574219 235.953125 419.773438 C 216.746094 389.121094 205.625 352.882812 205.625 314.042969 C 205.625 203.929688 294.890625 114.664062 405 114.664062 Z M 405 214.625 C 454.363281 214.625 494.382812 254.644531 494.382812 304.003906 C 494.382812 353.367188 454.367188 393.382812 405 393.382812 C 355.636719 393.382812 315.621094 353.367188 315.621094 304.003906 C 315.621094 254.644531 355.636719 214.625 405 214.625 Z M 405 214.625 " fill-opacity="1" fill-rule="evenodd"/></g></svg>