<svg xmlns="http://www.w3.org/2000/svg" xmlns:xlink="http://www.w3.org/1999/xlink" width="1080" zoomAndPan="magnify" viewBox="0 0 810 809.999993" height="1080" preserveAspectRatio="xMidYMid meet" version="1.0"><defs><clipPath id="6c93975a19"><path d="M 405 0 C 181.324219 0 0 181.324219 0 405 C 0 628.675781 181.324219 810 405 810 C 628.675781 810 810 628.675781 810 405 C 810 181.324219 628.675781 0 405 0 Z M 405 0 " clip-rule="nonzero"/></clipPath><clipPath id="faa1642e62"><path d="M 124.570312 249 L 313 249 L 313 561 L 124.570312 561 Z M 124.570312 249 " clip-rule="nonzero"/></clipPath><clipPath id="3caa88029e"><path d="M 154 225.175781 L 656 225.175781 L 656 436 L 154 436 Z M 154 225.175781 " clip-rule="nonzero"/></clipPath><clipPath id="18af2f69cb"><path d="M 497 249 L 685.570312 249 L 685.570312 561 L 497 561 Z M 497 249 " clip-rule="nonzero"/></clipPath></defs><rect x="-81" width="972" fill="#ffffff" y="-80.999999" height="971.999992" fill-opacity="1"/><rect x="-81" width="972" fill="#ffffff" y="-80.999999" height="971.999992" fill-opacity="1"/><g clip-path="url(#6c93975a19)"><rect x="-81" width="972" fill="#facc15" y="-80.999999" height="971.999992" fill-opacity="1"/></g><path fill="#ffffff" d="M 654.613281 578.632812 L 478.550781 432.339844 C 473.402344 428.066406 465.945312 428.066406 460.800781 432.339844 L 413.367188 471.753906 C 408.589844 475.71875 401.671875 475.71875 396.902344 471.753906 L 349.46875 432.339844 C 344.324219 428.066406 336.863281 428.066406 331.710938 432.339844 L 155.648438 578.632812 C 153.230469 580.644531 154.652344 584.585938 157.804688 584.585938 L 652.464844 584.585938 C 655.609375 584.585938 657.03125 580.644531 654.613281 578.632812 " fill-opacity="1" fill-rule="nonzero"/><g clip-path="url(#faa1642e62)"><path fill="#ffffff" d="M 309.722656 399.316406 L 130.160156 250.117188 C 127.972656 248.296875 124.648438 249.855469 124.648438 252.707031 L 124.648438 557.609375 C 124.648438 560.460938 127.972656 562.019531 130.160156 560.203125 L 309.722656 411.007812 C 313.378906 407.964844 313.378906 402.351562 309.722656 399.316406 " fill-opacity="1" fill-rule="nonzero"/></g><g clip-path="url(#3caa88029e)"><path fill="#ffffff" d="M 155.65625 231.6875 L 398.394531 433.382812 C 402.300781 436.625 407.964844 436.625 411.867188 433.382812 L 654.613281 231.6875 C 657.03125 229.675781 655.609375 225.730469 652.464844 225.730469 L 157.804688 225.730469 C 154.652344 225.730469 153.230469 229.675781 155.65625 231.6875 " fill-opacity="1" fill-rule="nonzero"/></g><g clip-path="url(#18af2f69cb)"><path fill="#ffffff" d="M 680.105469 250.117188 L 500.546875 399.316406 C 496.886719 402.351562 496.886719 407.964844 500.546875 411.007812 L 680.105469 560.203125 C 682.296875 562.019531 685.613281 560.464844 685.613281 557.613281 L 685.613281 252.707031 C 685.613281 249.855469 682.296875 248.296875 680.105469 250.117188 " fill-opacity="1" fill-rule="nonzero"/></g></svg>