<svg xmlns="http://www.w3.org/2000/svg" xmlns:xlink="http://www.w3.org/1999/xlink" width="1080" zoomAndPan="magnify" viewBox="0 0 810 809.999993" height="1080" preserveAspectRatio="xMidYMid meet" version="1.0"><defs><clipPath id="094e2cf75b"><path d="M 405 0 C 181.324219 0 0 181.324219 0 405 C 0 628.675781 181.324219 810 405 810 C 628.675781 810 810 628.675781 810 405 C 810 181.324219 628.675781 0 405 0 Z M 405 0 " clip-rule="nonzero"/></clipPath><clipPath id="c178cca728"><path d="M 161.242188 161.242188 L 648.742188 161.242188 L 648.742188 648.742188 L 161.242188 648.742188 Z M 161.242188 161.242188 " clip-rule="nonzero"/></clipPath></defs><rect x="-81" width="972" fill="#ffffff" y="-80.999999" height="971.999992" fill-opacity="1"/><rect x="-81" width="972" fill="#ffffff" y="-80.999999" height="971.999992" fill-opacity="1"/><g clip-path="url(#094e2cf75b)"><rect x="-81" width="972" fill="#facc15" y="-80.999999" height="971.999992" fill-opacity="1"/></g><g clip-path="url(#c178cca728)"><path fill="#ffffff" d="M 270.90625 161.242188 L 538.789062 161.242188 C 569.0625 161.242188 596.480469 173.523438 616.46875 193.511719 C 636.175781 213.21875 648.742188 240.921875 648.742188 270.90625 L 648.742188 538.789062 C 648.742188 569.0625 636.175781 596.480469 616.46875 616.46875 C 596.480469 636.175781 569.0625 648.742188 538.789062 648.742188 L 270.90625 648.742188 C 240.921875 648.742188 213.21875 636.175781 193.511719 616.46875 C 173.523438 596.480469 161.242188 569.0625 161.242188 538.789062 L 161.242188 270.90625 C 161.242188 240.921875 173.523438 213.21875 193.511719 193.511719 C 213.21875 173.523438 240.921875 161.242188 270.90625 161.242188 Z M 538.789062 204.652344 L 270.90625 204.652344 C 252.628906 204.652344 236.066406 212.078125 224.070312 224.070312 C 212.078125 236.066406 204.652344 252.628906 204.652344 270.90625 L 204.652344 538.789062 C 204.652344 557.066406 212.078125 573.632812 224.070312 585.625 C 236.066406 597.90625 252.628906 605.332031 270.90625 605.332031 L 538.789062 605.332031 C 557.066406 605.332031 573.632812 597.90625 585.625 585.625 C 597.90625 573.632812 605.332031 557.066406 605.332031 538.789062 L 605.332031 270.90625 C 605.332031 252.628906 597.90625 236.066406 585.625 224.070312 C 573.632812 212.078125 557.066406 204.652344 538.789062 204.652344 Z M 538.789062 204.652344 " fill-opacity="1" fill-rule="nonzero"/></g><path fill="#ffffff" d="M 541.644531 246.347656 C 547.644531 246.347656 553.355469 248.632812 557.066406 252.628906 C 561.066406 256.628906 563.636719 262.054688 563.636719 268.050781 C 563.636719 274.050781 561.066406 279.761719 557.066406 283.472656 C 553.355469 287.472656 547.644531 290.042969 541.644531 290.042969 C 535.648438 290.042969 530.222656 287.472656 526.222656 283.472656 C 522.226562 279.761719 519.941406 274.050781 519.941406 268.050781 C 519.941406 262.054688 522.226562 256.628906 526.222656 252.628906 C 530.222656 248.632812 535.648438 246.347656 541.644531 246.347656 Z M 541.644531 246.347656 " fill-opacity="1" fill-rule="nonzero"/><path fill="#ffffff" d="M 404.847656 286.613281 C 437.691406 286.613281 467.105469 300.039062 488.527344 321.171875 C 509.945312 342.589844 523.367188 372.292969 523.367188 404.847656 C 523.367188 437.691406 509.945312 467.105469 488.527344 488.527344 C 467.105469 509.945312 437.691406 523.367188 404.847656 523.367188 C 372.292969 523.367188 342.589844 509.945312 321.171875 488.527344 C 300.039062 467.105469 286.613281 437.691406 286.613281 404.847656 C 286.613281 372.292969 300.039062 342.589844 321.171875 321.171875 C 342.589844 300.039062 372.292969 286.613281 404.847656 286.613281 Z M 457.683594 352.300781 C 444.261719 338.878906 425.410156 330.308594 404.847656 330.308594 C 384.285156 330.308594 365.722656 338.878906 352.300781 352.300781 C 338.878906 365.722656 330.308594 384.285156 330.308594 404.847656 C 330.308594 425.410156 338.878906 444.261719 352.300781 457.683594 C 365.722656 471.105469 384.285156 479.386719 404.847656 479.386719 C 425.410156 479.386719 444.261719 471.105469 457.683594 457.683594 C 471.105469 444.261719 479.386719 425.410156 479.386719 404.847656 C 479.386719 384.285156 471.105469 365.722656 457.683594 352.300781 Z M 457.683594 352.300781 " fill-opacity="1" fill-rule="nonzero"/></svg>