<svg xmlns="http://www.w3.org/2000/svg" xmlns:xlink="http://www.w3.org/1999/xlink" width="1080" zoomAndPan="magnify" viewBox="0 0 810 809.999993" height="1080" preserveAspectRatio="xMidYMid meet" version="1.0"><defs><clipPath id="c00cef11e5"><path d="M 405 0 C 181.324219 0 0 181.324219 0 405 C 0 628.675781 181.324219 810 405 810 C 628.675781 810 810 628.675781 810 405 C 810 181.324219 628.675781 0 405 0 Z M 405 0 " clip-rule="nonzero"/></clipPath><clipPath id="5c9f00a54b"><path d="M 276.628906 134 L 533.128906 134 L 533.128906 676 L 276.628906 676 Z M 276.628906 134 " clip-rule="nonzero"/></clipPath></defs><rect x="-81" width="972" fill="#ffffff" y="-80.999999" height="971.999992" fill-opacity="1"/><rect x="-81" width="972" fill="#ffffff" y="-80.999999" height="971.999992" fill-opacity="1"/><g clip-path="url(#c00cef11e5)"><rect x="-81" width="972" fill="#facc15" y="-80.999999" height="971.999992" fill-opacity="1"/></g><g clip-path="url(#5c9f00a54b)"><path fill="#ffffff" d="M 473.953125 223.457031 L 533.128906 223.457031 L 533.128906 134.136719 L 457.566406 134.136719 L 457.566406 134.480469 C 358.222656 138.125 337.738281 193.835938 336.03125 252.734375 L 335.800781 252.734375 L 335.800781 314.710938 L 276.628906 314.710938 L 276.628906 404.144531 L 335.800781 404.144531 L 335.800781 675.972656 L 441.976562 675.972656 L 441.976562 404.144531 L 518.105469 404.144531 L 533.128906 314.710938 L 441.976562 314.710938 L 441.976562 259.230469 C 441.976562 239.519531 455.175781 223.457031 473.953125 223.457031 Z M 473.953125 223.457031 " fill-opacity="1" fill-rule="nonzero"/></g></svg>