<svg xmlns="http://www.w3.org/2000/svg" xmlns:xlink="http://www.w3.org/1999/xlink" width="1080" zoomAndPan="magnify" viewBox="0 0 810 809.999993" height="1080" preserveAspectRatio="xMidYMid meet" version="1.0"><defs><clipPath id="300e6a52b5"><path d="M 405 0 C 181.324219 0 0 181.324219 0 405 C 0 628.675781 181.324219 810 405 810 C 628.675781 810 810 628.675781 810 405 C 810 181.324219 628.675781 0 405 0 Z M 405 0 " clip-rule="nonzero"/></clipPath><clipPath id="a954835c28"><path d="M 179 302 L 258 302 L 258 667.46875 L 179 667.46875 Z M 179 302 " clip-rule="nonzero"/></clipPath><clipPath id="ff12129fd3"><path d="M 345 295 L 661 295 L 661 667.46875 L 345 667.46875 Z M 345 295 " clip-rule="nonzero"/></clipPath><clipPath id="177460b529"><path d="M 149.03125 142.46875 L 288 142.46875 L 288 282 L 149.03125 282 Z M 149.03125 142.46875 " clip-rule="nonzero"/></clipPath><clipPath id="8580c86e63"><path d="M 161.851562 142.46875 L 276.089844 142.46875 L 276.089844 256.707031 L 161.851562 256.707031 Z M 161.851562 142.46875 " clip-rule="nonzero"/></clipPath><clipPath id="309de58ee9"><path d="M 218.96875 142.46875 C 187.421875 142.46875 161.851562 168.039062 161.851562 199.585938 C 161.851562 231.132812 187.421875 256.707031 218.96875 256.707031 C 250.515625 256.707031 276.089844 231.132812 276.089844 199.585938 C 276.089844 168.039062 250.515625 142.46875 218.96875 142.46875 Z M 218.96875 142.46875 " clip-rule="nonzero"/></clipPath></defs><rect x="-81" width="972" fill="#ffffff" y="-80.999999" height="971.999992" fill-opacity="1"/><rect x="-81" width="972" fill="#ffffff" y="-80.999999" height="971.999992" fill-opacity="1"/><g clip-path="url(#300e6a52b5)"><rect x="-81" width="972" fill="#facc15" y="-80.999999" height="971.999992" fill-opacity="1"/></g><g clip-path="url(#a954835c28)"><path fill="#ffffff" d="M 186.910156 302.929688 L 250.464844 302.929688 C 250.957031 302.929688 251.445312 302.976562 251.929688 303.074219 C 252.410156 303.167969 252.878906 303.3125 253.335938 303.5 C 253.789062 303.6875 254.222656 303.917969 254.632812 304.191406 C 255.039062 304.464844 255.417969 304.777344 255.769531 305.125 C 256.117188 305.472656 256.425781 305.851562 256.699219 306.261719 C 256.972656 306.671875 257.203125 307.101562 257.394531 307.558594 C 257.582031 308.011719 257.722656 308.480469 257.820312 308.964844 C 257.917969 309.449219 257.964844 309.933594 257.964844 310.429688 L 257.964844 659.96875 C 257.964844 660.460938 257.917969 660.949219 257.820312 661.433594 C 257.722656 661.914062 257.582031 662.382812 257.394531 662.839844 C 257.203125 663.292969 256.972656 663.726562 256.699219 664.136719 C 256.425781 664.546875 256.117188 664.925781 255.769531 665.273438 C 255.417969 665.621094 255.039062 665.929688 254.632812 666.203125 C 254.222656 666.480469 253.789062 666.710938 253.335938 666.898438 C 252.878906 667.085938 252.410156 667.230469 251.929688 667.324219 C 251.445312 667.421875 250.957031 667.46875 250.464844 667.46875 L 186.910156 667.46875 C 186.417969 667.46875 185.929688 667.421875 185.445312 667.324219 C 184.964844 667.230469 184.496094 667.085938 184.039062 666.898438 C 183.585938 666.710938 183.152344 666.480469 182.742188 666.203125 C 182.332031 665.929688 181.953125 665.621094 181.605469 665.273438 C 181.257812 664.925781 180.949219 664.546875 180.671875 664.136719 C 180.398438 663.726562 180.167969 663.292969 179.980469 662.839844 C 179.792969 662.382812 179.648438 661.914062 179.554688 661.433594 C 179.457031 660.949219 179.410156 660.460938 179.410156 659.96875 L 179.410156 310.429688 C 179.410156 309.933594 179.457031 309.449219 179.554688 308.964844 C 179.648438 308.480469 179.792969 308.011719 179.980469 307.558594 C 180.167969 307.101562 180.398438 306.671875 180.671875 306.261719 C 180.949219 305.851562 181.257812 305.472656 181.605469 305.125 C 181.953125 304.777344 182.332031 304.464844 182.742188 304.191406 C 183.152344 303.917969 183.585938 303.6875 184.039062 303.5 C 184.496094 303.3125 184.964844 303.167969 185.445312 303.074219 C 185.929688 302.976562 186.417969 302.929688 186.910156 302.929688 Z M 186.910156 302.929688 " fill-opacity="1" fill-rule="nonzero"/></g><g clip-path="url(#ff12129fd3)"><path fill="#ffffff" d="M 647.914062 374.65625 C 640.214844 355.328125 629.085938 339.066406 614.839844 326.324219 C 602.582031 315.382812 588.183594 307.101562 572.011719 301.75 C 558.347656 297.269531 544.328125 295.019531 529.949219 295 C 502.011719 295 475.40625 302.457031 453.011719 316.558594 C 439.949219 324.773438 428.660156 334.953125 419.144531 347.101562 L 416.824219 309.980469 C 416.792969 309.507812 416.71875 309.042969 416.601562 308.585938 C 416.484375 308.128906 416.324219 307.683594 416.125 307.253906 C 415.921875 306.828125 415.683594 306.421875 415.402344 306.039062 C 415.125 305.65625 414.8125 305.304688 414.46875 304.980469 C 414.121094 304.65625 413.75 304.367188 413.351562 304.113281 C 412.949219 303.859375 412.53125 303.648438 412.089844 303.472656 C 411.648438 303.300781 411.195312 303.167969 410.730469 303.082031 C 410.265625 302.992188 409.796875 302.949219 409.324219 302.949219 L 353.007812 302.949219 C 352.492188 302.953125 351.984375 303.003906 351.476562 303.109375 C 350.972656 303.214844 350.484375 303.371094 350.011719 303.578125 C 349.539062 303.785156 349.089844 304.035156 348.667969 304.335938 C 348.25 304.632812 347.863281 304.972656 347.511719 305.351562 C 347.160156 305.730469 346.851562 306.140625 346.585938 306.582031 C 346.320312 307.023438 346.101562 307.488281 345.929688 307.976562 C 345.761719 308.460938 345.640625 308.960938 345.574219 309.472656 C 345.507812 309.984375 345.492188 310.5 345.53125 311.011719 C 347.542969 337.824219 348.402344 365.949219 348.402344 405.054688 L 348.402344 659.96875 C 348.402344 660.460938 348.449219 660.949219 348.546875 661.433594 C 348.640625 661.914062 348.785156 662.382812 348.972656 662.839844 C 349.160156 663.292969 349.390625 663.726562 349.664062 664.136719 C 349.9375 664.546875 350.25 664.925781 350.597656 665.273438 C 350.945312 665.621094 351.324219 665.929688 351.734375 666.203125 C 352.144531 666.480469 352.574219 666.710938 353.03125 666.898438 C 353.484375 667.085938 353.953125 667.230469 354.4375 667.324219 C 354.921875 667.421875 355.40625 667.46875 355.898438 667.46875 L 419.453125 667.46875 C 419.945312 667.46875 420.433594 667.421875 420.914062 667.324219 C 421.398438 667.230469 421.867188 667.085938 422.320312 666.898438 C 422.777344 666.710938 423.210938 666.480469 423.617188 666.203125 C 424.027344 665.929688 424.40625 665.621094 424.753906 665.273438 C 425.101562 664.925781 425.414062 664.546875 425.6875 664.136719 C 425.960938 663.726562 426.191406 663.292969 426.378906 662.839844 C 426.570312 662.382812 426.710938 661.914062 426.808594 661.433594 C 426.902344 660.949219 426.953125 660.460938 426.953125 659.96875 L 426.953125 449.8125 C 426.953125 439.402344 428.363281 429.5625 430.832031 422.765625 C 430.878906 422.640625 430.917969 422.523438 430.957031 422.390625 C 440.050781 392.679688 467.703125 362.699219 509.003906 362.699219 C 569.65625 362.699219 582.390625 414.78125 582.390625 458.472656 L 582.390625 659.96875 C 582.390625 660.460938 582.4375 660.949219 582.535156 661.433594 C 582.632812 661.914062 582.773438 662.382812 582.960938 662.839844 C 583.152344 663.292969 583.382812 663.726562 583.65625 664.136719 C 583.929688 664.546875 584.238281 664.925781 584.585938 665.273438 C 584.9375 665.621094 585.316406 665.929688 585.722656 666.203125 C 586.132812 666.480469 586.566406 666.710938 587.019531 666.898438 C 587.476562 667.085938 587.945312 667.230469 588.425781 667.324219 C 588.910156 667.421875 589.398438 667.46875 589.890625 667.46875 L 653.441406 667.46875 C 653.933594 667.46875 654.421875 667.421875 654.90625 667.324219 C 655.386719 667.230469 655.855469 667.085938 656.3125 666.898438 C 656.765625 666.710938 657.199219 666.480469 657.609375 666.203125 C 658.019531 665.929688 658.398438 665.621094 658.746094 665.273438 C 659.09375 664.925781 659.402344 664.546875 659.679688 664.136719 C 659.953125 663.726562 660.183594 663.292969 660.371094 662.839844 C 660.558594 662.382812 660.703125 661.914062 660.796875 661.433594 C 660.894531 660.949219 660.941406 660.460938 660.941406 659.96875 L 660.941406 451.253906 C 660.941406 422.117188 656.578125 396.34375 647.914062 374.65625 Z M 647.914062 374.65625 " fill-opacity="1" fill-rule="nonzero"/></g><g clip-path="url(#177460b529)"><path fill="#facc15" d="M 283.761719 205.265625 L 245.722656 184.464844 L 224.917969 146.425781 C 224.597656 145.832031 224.199219 145.296875 223.734375 144.8125 C 223.265625 144.328125 222.742188 143.914062 222.164062 143.570312 C 221.585938 143.226562 220.972656 142.964844 220.320312 142.789062 C 219.671875 142.609375 219.011719 142.519531 218.339844 142.519531 C 217.664062 142.519531 217.003906 142.609375 216.355469 142.789062 C 215.707031 142.964844 215.09375 143.226562 214.511719 143.570312 C 213.933594 143.914062 213.410156 144.328125 212.941406 144.8125 C 212.476562 145.296875 212.082031 145.832031 211.757812 146.425781 L 190.953125 184.464844 L 152.914062 205.265625 C 152.324219 205.589844 151.789062 205.984375 151.304688 206.453125 C 150.820312 206.917969 150.40625 207.441406 150.0625 208.023438 C 149.71875 208.601562 149.457031 209.214844 149.28125 209.863281 C 149.101562 210.511719 149.011719 211.175781 149.011719 211.847656 C 149.011719 212.519531 149.101562 213.179688 149.28125 213.832031 C 149.457031 214.480469 149.71875 215.09375 150.0625 215.671875 C 150.40625 216.25 150.820312 216.773438 151.304688 217.242188 C 151.789062 217.710938 152.324219 218.105469 152.914062 218.425781 L 190.953125 239.230469 L 211.757812 277.269531 C 212.082031 277.859375 212.476562 278.398438 212.941406 278.882812 C 213.410156 279.367188 213.933594 279.78125 214.511719 280.125 C 215.09375 280.46875 215.707031 280.726562 216.355469 280.90625 C 217.003906 281.082031 217.664062 281.171875 218.339844 281.171875 C 219.011719 281.171875 219.671875 281.082031 220.320312 280.90625 C 220.972656 280.726562 221.585938 280.46875 222.164062 280.125 C 222.742188 279.78125 223.265625 279.367188 223.734375 278.882812 C 224.199219 278.398438 224.597656 277.859375 224.917969 277.269531 L 245.722656 239.230469 L 283.761719 218.425781 C 284.351562 218.105469 284.890625 217.710938 285.375 217.242188 C 285.859375 216.773438 286.273438 216.25 286.613281 215.671875 C 286.957031 215.09375 287.21875 214.480469 287.398438 213.832031 C 287.574219 213.179688 287.664062 212.519531 287.664062 211.847656 C 287.664062 211.175781 287.574219 210.511719 287.398438 209.863281 C 287.21875 209.214844 286.957031 208.601562 286.613281 208.023438 C 286.273438 207.441406 285.859375 206.917969 285.375 206.453125 C 284.890625 205.984375 284.351562 205.589844 283.761719 205.265625 Z M 283.761719 205.265625 " fill-opacity="1" fill-rule="nonzero"/></g><g clip-path="url(#8580c86e63)"><g clip-path="url(#309de58ee9)"><path fill="#ffffff" d="M 161.851562 142.46875 L 276.089844 142.46875 L 276.089844 256.707031 L 161.851562 256.707031 Z M 161.851562 142.46875 " fill-opacity="1" fill-rule="nonzero"/></g></g></svg>